<?xml version="1.0" encoding="utf-8"?>
<!-- Generator: Adobe Illustrator 23.0.3, SVG Export Plug-In . SVG Version: 6.00 Build 0)  -->
<svg version="1.1" id="Layer_1" xmlns="http://www.w3.org/2000/svg" xmlns:xlink="http://www.w3.org/1999/xlink" x="0px" y="0px"
	 viewBox="0 0 300 76" style="enable-background:new 0 0 300 76;" xml:space="preserve">
<style type="text/css">
	.st0{fill:#11CA79;}
	.st1{fill:#3474FF;}
	.st2{fill:#231F20;}
	.st3{fill:#00ADEF;}
</style>
<g>
	<g>
		<path class="st0" d="M237.98,28.47c0,9.52-6.72,15.88-16.42,15.88c-9.88,0-16.51-6.4-16.51-15.88c0-9.52,6.72-15.79,16.51-15.79
			C231.35,12.69,237.98,19,237.98,28.47 M212.81,28.61c0,5.59,3.61,9.52,8.89,9.52c5.1,0,8.8-3.88,8.8-9.52
			c0-5.59-3.61-9.52-8.8-9.52C216.37,19.18,212.81,22.97,212.81,28.61"/>
	</g>
	<g>
		<path class="st0" d="M272.3,12.87v31.21h-7.58v-5.82c-2.21,4.1-5.91,6.09-10.92,6.09c-6.99,0-11.28-4.6-11.28-12V12.87h7.58v17.28
			c0,4.42,2.48,6.99,6.72,6.99c4.92-0.09,7.8-3.88,7.8-8.89V12.87H272.3z"/>
	</g>
	<g>
		<path class="st0" d="M300,42.19c-2.39,1.49-5.1,2.3-7.8,2.3c-5.1,0-9.2-2.89-9.2-9.29V19.68h-4.42l-0.09-5.5h4.42V5.56h7.49v8.62
			h8.89v5.5h-8.89V33.8c0,3.02,1.22,4.01,3.29,4.01c1.31,0,2.71-0.5,4.42-1.31L300,42.19z"/>
	</g>
	<g>
		<polygon class="st1" points="205.1,44.3 176,15.3 176,25.99 194.41,44.3 		"/>
	</g>
	<g>
		<rect x="176" y="0.69" class="st1" width="7.58" height="43.57"/>
	</g>
	<g>
		<polygon class="st0" points="193.91,12.6 183.58,22.79 176,15.3 176,25.99 178.3,28.2 183.58,33.57 204.6,12.6 		"/>
	</g>
	<g>
		<path class="st1" d="M30.13,44.08H0.95v-5.82l13.8-14.7c1.89-2.12,3.29-3.88,4.19-5.41c0.9-1.53,1.4-3.02,1.4-4.42
			c0-1.89-0.5-3.38-1.4-4.51c-0.99-1.08-2.3-1.58-4.1-1.58c-1.89,0-3.38,0.72-4.51,1.99c-1.08,1.31-1.71,3.11-1.71,5.19H0
			c0-2.62,0.59-5.01,1.89-7.08c1.22-2.21,3.02-3.88,5.19-5.1c2.3-1.22,4.78-1.8,7.71-1.8c4.42,0,7.8,1.08,10.28,3.2
			c2.48,2.12,3.7,5.1,3.7,9.02c0,2.12-0.5,4.29-1.58,6.5c-1.08,2.21-3.02,4.69-5.59,7.71l-9.7,10.19h18.4v6.58h-0.18V44.08z"/>
	</g>
	<g>
		<path class="st1" d="M50.52,19.27c-5.01,0-8.48,3.7-8.48,9.2c0,5.59,3.52,9.29,8.48,9.29c3.61,0,6.5-1.22,8.39-3.7l4.69,3.88
			c-2.71,4.01-7.4,6.32-13.49,6.32c-9.29,0-15.79-6.41-15.79-15.79c0-9.52,6.5-15.88,15.88-15.88c5.68,0,10.28,2.12,13.08,5.68
			l-4.6,4.42C56.7,20.58,53.9,19.27,50.52,19.27"/>
	</g>
	<g>
		<path class="st1" d="M100.81,24.68v19.49h-7.58V26.89c0-4.42-2.62-7.08-6.9-7.08c-5.1,0.09-8.21,3.88-8.21,9.02v15.29h-7.58V0.82
			h7.58v18c2.21-4.28,6.09-6.18,11.28-6.18C96.39,12.6,100.81,17.2,100.81,24.68"/>
	</g>
	<g>
		<path class="st1" d="M137.3,31.18h-23.09c0.99,4.42,4.42,7.08,8.89,7.08c3.2,0,6.18-1.22,8.39-3.52l4.1,4.28
			c-3.11,3.38-7.58,5.41-13.08,5.41c-9.7,0-16.1-6.4-16.1-15.79c0-9.52,6.5-15.88,15.88-15.88C133.29,12.69,138.02,19.9,137.3,31.18
			 M130.4,26.08c-0.18-4.6-3.29-7.49-7.98-7.49c-4.51,0-7.58,2.89-8.3,7.49H130.4z"/>
	</g>
	<g>
		<path class="st1" d="M157.19,19.27c-5.01,0-8.48,3.7-8.48,9.2c0,5.59,3.52,9.29,8.48,9.29c3.61,0,6.5-1.22,8.39-3.7l4.69,3.88
			c-2.71,4.01-7.4,6.32-13.49,6.32c-9.29,0-15.79-6.41-15.79-15.79c0-9.52,6.5-15.88,15.88-15.88c5.68,0,10.28,2.12,13.08,5.68
			l-4.6,4.42C163.28,20.58,160.62,19.27,157.19,19.27"/>
	</g>
	<g>
		<g>
			<path class="st2" d="M128.91,61.28c0,0.62-0.45,1.09-1.05,1.09c-0.6,0-1.05-0.47-1.05-1.09c0-0.64,0.45-1.09,1.05-1.09
				C128.46,60.19,128.91,60.65,128.91,61.28z M128.66,64.4v10.85h-1.59V64.4H128.66z"/>
			<path class="st2" d="M135.37,65.68c-1.22,0-2.15,0.43-2.15,1.46c0,2.45,6.06,1.2,6.06,5.1c0,2.12-1.9,3.07-3.98,3.07
				c-1.55,0-3.14-0.54-4.17-1.53l0.62-1.18c0.93,0.87,2.33,1.38,3.61,1.38s2.31-0.49,2.33-1.59c0.06-2.64-6.02-1.3-6-5.14
				c0-2.06,1.79-2.95,3.77-2.95c1.3,0,2.56,0.39,3.47,0.99l-0.62,1.24C137.47,66.01,136.38,65.68,135.37,65.68z"/>
			<path class="st2" d="M158.05,68.57v6.68h-1.61v-6.27c0-1.94-1.16-3.09-3.07-3.09c-2.15,0.02-3.47,1.44-3.65,3.55v5.82h-1.61V64.4
				h1.61v2.39c0.76-1.65,2.23-2.43,4.21-2.45C156.53,64.34,158.05,65.93,158.05,68.57z"/>
			<path class="st2" d="M171.56,69.8c0,3.24-2.29,5.51-5.51,5.51c-3.24,0-5.51-2.27-5.51-5.51c0-3.22,2.27-5.47,5.51-5.47
				C169.27,64.34,171.56,66.59,171.56,69.8z M162.16,69.83c0,2.43,1.61,4.08,3.9,4.08c2.27,0,3.9-1.65,3.9-4.08
				c0-2.39-1.63-4.06-3.9-4.06C163.76,65.76,162.16,67.43,162.16,69.83z"/>
			<path class="st2" d="M174.2,64.4l3.22,9.22l3.16-9.22h1.69l3.2,9.22l3.18-9.22h1.67l-4.02,10.85h-1.67l-3.2-8.89l-3.18,8.89
				h-1.67l-4.06-10.85H174.2z"/>
		</g>
		<g>
			<g>
				<polygon class="st2" points="238.28,60.69 242.13,60.69 242.75,57.57 238.9,57.57 				"/>
			</g>
			<g>
				<path class="st2" d="M237.88,62.69h3.85l-2.45,12.3c-0.18,0.06-0.73,0.28-1.49,0.28c-1.03,0-1.97-0.4-1.97-1.82
					c0-0.27,0.03-0.57,0.1-0.91C236.69,68.7,237.88,62.69,237.88,62.69"/>
			</g>
			<g>
				<path class="st2" d="M276.11,62.41c-2.56,0-3.58,1.5-4.06,2.41h-0.05l0.15-2.13h-3.8c-0.02,0.47-0.19,1.94-0.43,3.21
					c0,0-0.88,4.46-1.05,5.32c-0.13,0.65-0.36,1.62-0.36,2.18c0,1.19,0.61,1.86,1.96,1.86c0.76,0,1.3-0.21,1.5-0.28l1.27-6.4
					c0.35-1.77,1.63-2.93,3.16-2.93c1.23,0,1.82,0.89,1.82,1.63c0,0.64-0.16,1.34-0.28,1.97l-0.55,2.74
					c-0.07,0.33-0.2,0.96-0.2,1.46c0,1.21,0.68,1.82,1.99,1.82c0.71,0,1.16-0.18,1.48-0.28l1.14-5.74c0.25-1.3,0.34-1.98,0.34-2.81
					C280.13,64.06,278.74,62.41,276.11,62.41"/>
			</g>
			<g>
				<path class="st2" d="M259.34,62.41c-4.59,0-7.56,2.93-7.56,7.24c0,3.15,1.97,5.62,6.09,5.62c4.39,0,7.56-2.73,7.56-7.36
					C265.43,64.82,263.32,62.41,259.34,62.41 M258.11,72.3c-1.7,0-2.44-1.11-2.44-2.76c0-1.96,1.19-4.16,3.34-4.16
					c1.84,0,2.52,1.22,2.52,2.5C261.53,70.67,260.03,72.3,258.11,72.3"/>
			</g>
			<g>
				<path class="st2" d="M243.46,72.31c-0.09,0.44-0.14,0.75-0.14,1.13c0,1.41,0.94,1.83,1.94,1.83c0.8,0,1.29-0.22,1.48-0.28
					l1.85-9.32l2.99,0l0.59-2.97h-2.99l0.15-0.73c0.27-1.37,0.92-1.98,2.04-1.98c0.75,0,1.35,0.13,1.56,0.19l0.56-2.83
					c-0.24-0.06-1.35-0.33-2.98-0.33c-2.61,0-4.32,1.58-4.82,4.13l-0.31,1.55h-1.95l-0.59,2.97h1.95
					C244.78,65.67,244.01,69.52,243.46,72.31"/>
			</g>
			<g>
				<path class="st2" d="M234.6,62.41c-1.93,0-3,1.34-3.41,2.41h-0.04l0.15-2.13h-3.81c-0.03,0.74-0.19,1.98-0.58,3.95
					c-0.39,1.99-0.78,3.97-1.17,5.9c-0.07,0.33-0.1,0.65-0.1,0.93c0,1.01,0.5,1.81,1.98,1.81c0.73,0,1.24-0.19,1.48-0.28l1.13-5.7
					c0.41-2.18,1.15-3.62,3.3-3.62c0.98,0,1.91,0.21,2.1,0.27l0.65-3.28C236.14,62.6,235.58,62.41,234.6,62.41"/>
			</g>
			<g>
				<path class="st2" d="M294.27,67.77c0-3.73-2.45-5.36-5.74-5.36c-4.98,0-7.02,4.18-7.02,7.24c0,3.09,1.98,5.62,6.04,5.62
					c2.94,0,4.59-1.31,4.59-3.02v-0.32c-0.25,0.12-1.78,0.6-3.13,0.6c-3.03,0-3.79-1.55-3.77-2.45h8.72
					C294.06,69.68,294.27,68.69,294.27,67.77 M290.44,67.68h-4.9c0.36-1.06,1.15-2.29,2.96-2.29
					C289.99,65.38,290.64,66.55,290.44,67.68"/>
			</g>
			<g>
				<path class="st2" d="M224.71,67.77c0-3.73-2.45-5.36-5.74-5.36c-4.98,0-7.02,4.18-7.02,7.24c0,3.09,1.98,5.62,6.04,5.62
					c2.94,0,4.59-1.31,4.59-3.02v-0.32c-0.25,0.12-1.78,0.6-3.13,0.6c-3.03,0-3.79-1.55-3.77-2.45h8.72
					C224.5,69.68,224.71,68.69,224.71,67.77 M220.87,67.68h-4.9c0.35-1.06,1.15-2.29,2.96-2.29
					C220.42,65.38,221.08,66.55,220.87,67.68"/>
			</g>
			<g>
				<path class="st2" d="M199.46,58.51h3.87v12.23c0,1.84,0.92,2.78,2.39,2.78c0.15,0,0.24-0.02,0.27-0.03
					c-0.64,0.97-1.48,1.77-3.4,1.77c-2.03,0-3.13-1.41-3.13-3.52V58.51z"/>
			</g>
			<g>
				<path class="st3" d="M204.41,69.47v1.28c0,1.24,0.67,1.68,1.4,1.68c0.75,0,1.15-0.51,1.52-1.08c0.62-0.97,8.14-12.85,8.14-12.85
					h-4.03L204.41,69.47z"/>
			</g>
			<g>
				<path class="st2" d="M297.75,64.15h0.43c0.4,0,0.59-0.19,0.59-0.42c0-0.14-0.07-0.35-0.44-0.35h-0.43L297.75,64.15z
					 M297.74,63.2h0.63c0.38,0,0.61,0.2,0.61,0.5c0,0.49-0.46,0.6-0.68,0.62l0.42,1.04h-0.23l-0.4-1.03h-0.38l-0.2,1.03h-0.2
					L297.74,63.2z M297.91,66c1.04,0,1.76-0.75,1.86-1.68c0.1-0.93-0.57-1.68-1.49-1.68c-1.03,0-1.76,0.75-1.86,1.68
					C296.31,65.25,296.98,66,297.91,66 M298.3,62.42c1.05,0,1.81,0.85,1.69,1.9c-0.11,1.05-0.96,1.9-2.11,1.9
					c-1.05,0-1.81-0.85-1.69-1.9C296.3,63.27,297.18,62.42,298.3,62.42"/>
			</g>
		</g>
	</g>
</g>
</svg>
